<svg xmlns="http://www.w3.org/2000/svg" height="800" width="1200" viewBox="-149.4 -55.59975 1294.8 333.5985"><path d="M64.353 149.207c-15.125 0-27.688-10.765-30.511-25.126L0 130.618c5.774 30.255 32.433 53.071 64.353 53.071 18.2 0 34.606-7.434 46.533-19.357l-27.693-21.407c-5.257 3.848-11.79 6.282-18.84 6.282m0-62.17c7.05 0 13.583 2.433 18.84 6.408l27.693-21.406C98.959 60.121 82.552 52.682 64.353 52.682c-31.92 0-58.58 22.82-64.353 53.07l33.842 6.667c2.694-14.485 15.258-25.382 30.51-25.382m466.845 66.786c-17.175 0-29.738-12.563-31.66-31.023v-9.74c1.922-18.204 14.485-30.763 31.66-30.763 19.618 0 33.457 14.74 33.457 35.63-.128 21.155-13.84 35.896-33.457 35.896m10.129-101.14c-17.435 0-31.916 7.562-41.917 20.381V55.505H464.03V222.4h35.379v-59.35c9.873 13.076 24.482 20.638 41.917 20.638 33.458 0 57.682-27.176 57.682-65.634 0-38.326-24.224-65.373-57.682-65.373M681.56 153.823c-18.845 0-34.61-16.406-34.61-35.896 0-19.353 15.765-35.63 34.61-35.63 18.584 0 34.354 16.277 34.354 35.63.128 19.49-15.642 35.896-34.354 35.896m0-101.14c-37.3 0-68.58 29.741-68.58 65.372 0 35.64 31.28 65.634 68.58 65.634 37.045 0 68.063-29.994 68.063-65.634 0-35.63-31.018-65.373-68.063-65.373m84.858 128.06h35.375V11.535h-35.375zm169.717-77.684c-16.923-4.611-22.047-6.533-22.047-13.326 0-4.36 6.024-7.563 14.74-7.563 10.638 0 23.713 4.1 35.123 11.149l14.23-25.122c-13.846-9.232-31.537-15.514-49.352-15.514-29.482 0-49.095 16.923-48.968 40.636.257 24.737 20.126 31.792 45.76 38.074 12.824 3.33 22.048 5.769 22.048 13.583 0 5.513-6.794 9.489-16.279 9.489-16.662 0-30.762-6.026-41.917-14.1l-15.125 24.352c14.998 12.051 36.281 18.845 56.403 18.845 30.766 0 50.888-15.766 50.888-40.38 0-27.303-23.97-34.61-45.504-40.123m-111.137 77.685h35.379V55.505h-35.38zM842.818.129C831.92.129 823.46 9.1 823.46 18.973c0 10.638 8.46 19.357 19.357 19.357 10.381 0 18.84-8.72 18.84-19.357.133-9.873-8.33-18.844-18.84-18.844M415.319 11.666H379.94l-13.203 26.916h35.379zm-57.81 92.55c4.617-12.564 15.766-20.383 29.098-20.383 14.361 0 23.456 7.948 26.919 20.383zm27.689-51.658c-36.533 0-64.477 27.428-64.477 65.117 0 38.454 29.098 65.886 66.398 65.886 18.46 0 39.995-7.69 51.149-19.357l-22.564-23.072c-6.794 6.538-18.84 11.15-28.84 11.15-14.742 0-25.64-9.229-29.74-22.817h90.244c0-47.04-22.948-76.907-62.17-76.907m-126.52.124c-16.277 0-30.25 7.179-37.812 18.589V55.505h-35.38v125.238h35.38v-74.221c0-13.588 11.661-24.098 26.402-24.098 14.105 0 23.717 10.637 23.717 26.147v72.172h34.093v-79.735c.134-28.328-19.224-48.326-46.4-48.326M142.93 0c-10.898 0-19.356 8.972-19.356 18.84 0 10.642 8.458 19.362 19.356 19.362 10.38 0 18.845-8.72 18.845-19.362C161.774 8.972 153.31 0 142.93 0m-17.947 180.743h35.379V55.505h-35.38zM996 176.639c0 4.232-3.334 7.563-7.695 7.563-4.356 0-7.819-3.331-7.819-7.563 0-4.232 3.463-7.563 7.82-7.563 4.36.128 7.694 3.464 7.694 7.563zm-13.587 0c0 3.335 2.429 6.025 5.892 6.025 3.336 0 5.77-2.69 5.77-6.025 0-3.335-2.434-6.025-5.77-6.025-3.33 0-5.892 2.69-5.892 6.025zm4.74 3.976h-1.794v-7.567c.64-.129 1.665-.257 2.946-.257 1.41 0 2.05.257 2.563.513.389.384.773.901.773 1.665 0 .773-.646 1.414-1.543 1.798v.128c.77.256 1.159.769 1.41 1.794.26 1.157.39 1.665.517 1.926h-1.927c-.25-.261-.384-1.03-.64-1.798-.123-.769-.64-1.153-1.537-1.153h-.768zm0-4.232h.768c1.025 0 1.793-.385 1.793-1.153 0-.64-.507-1.158-1.665-1.158-.512 0-.769 0-1.025.133z" fill="#212e5c"/></svg>